<?xml version="1.0" encoding="utf-8"?>
<svg version="1.1" xmlns:xlink="http://www.w3.org/1999/xlink" width="300px" height="170px" xmlns="http://www.w3.org/2000/svg">
  <g transform="matrix(1 0 0 1 -221 -562 )">
    <path d="M 221 562  L 521 562  L 521 732  L 221 732  L 221 562  " fill-rule="nonzero" fill="#cccccc" stroke="none" />
    <path d="M 233 574  L 509 574  L 509 720  L 233 720  L 233 574  " fill-rule="nonzero" fill="#ffffff" stroke="none" />
    <path d="M 389.75 613  C 382.61 613  377 607.39  377 600.25  C 377 593.11  382.61 587.5  389.75 587.5  C 396.89 587.5  402.5 593.11  402.5 600.25  C 402.5 607.39  396.89 613  389.75 613  " fill-rule="nonzero" fill="#cccccc" stroke="none" />
    <path d="M 238 716  L 238 640.65  L 304.75 606.4  L 398.2 669.42  L 451.6 626.95  L 505 669.42  L 505 716  L 238 716  " fill-rule="nonzero" fill="#169bd5" stroke="none" />
  </g>
</svg>